<svg width="25" height="25" viewBox="0 0 25 25" fill="none" xmlns="http://www.w3.org/2000/svg">
<path d="M2.77778 0.00341797H22.2222C22.9589 0.00341797 23.6655 0.296036 24.1864 0.816899C24.7073 1.33776 25 2.0442 25 2.78082V22.2226C25 22.9592 24.7073 23.6657 24.1864 24.1865C23.6655 24.7074 22.9589 25 22.2222 25H2.77778C2.04107 25 1.33453 24.7074 0.813592 24.1865C0.292658 23.6657 0 22.9592 0 22.2226V2.78082C0 2.0442 0.292658 1.33776 0.813592 0.816899C1.33453 0.296036 2.04107 0.00341797 2.77778 0.00341797V0.00341797ZM20.8333 2.78082H17.3611C16.0719 2.78082 14.8354 3.2929 13.9238 4.20441C13.0122 5.11592 12.5 6.35219 12.5 7.64126V11.113H9.72222V15.2791H12.5V25H16.6667V15.2791H20.8333V11.113H16.6667V8.33561C16.6667 7.96731 16.813 7.61409 17.0735 7.35365C17.3339 7.09322 17.6872 6.94691 18.0556 6.94691H20.8333V2.78082Z" fill="#090943"/>
</svg>
