<svg width="800" height="801" viewBox="0 0 800 801" fill="none" xmlns="http://www.w3.org/2000/svg">
<path d="M396.359 517.375L172.496 287.928C108.153 231.356 100.14 131.806 156.956 67.2217C213.528 2.87798 313.318 -4.89076 377.662 51.6811L400 71.1061L422.337 51.6811C487.893 -5.13451 586.471 2.87798 643.043 67.2217C699.859 132.778 691.846 231.356 627.503 287.928L396.359 517.375ZM516.484 643.809C516.484 616.028 527.19 588.244 548.318 566.828L676.812 438.334C690.415 424.731 712.409 424.731 726.009 438.334C739.612 451.937 739.612 473.931 726.009 487.531L622.406 591.134C617.775 595.184 617.775 602.422 622.406 607.05C627.037 611.681 634.271 611.681 638.903 607.05L741.928 504.025C753.215 493.319 759.003 478.559 759.003 463.219C759.003 447.878 752.637 433.122 741.928 422.412C737.296 417.203 730.64 412.862 724.275 409.969V263.828C724.275 244.437 739.612 228.812 758.712 228.812C778.103 228.812 793.731 244.728 793.731 263.828V501.712C794.309 530.075 783.603 560.75 761.896 582.744L672.471 672.169C661.184 683.456 655.396 698.216 655.396 712.975V787.409H516.775V643.809H516.484ZM283.225 643.809V787.409H144.603V712.975C144.603 698.216 138.815 683.456 127.528 672.169L38.1027 582.744C16.3964 560.75 5.69019 530.072 6.26831 501.712V263.828C6.26831 244.728 21.8964 228.812 41.2839 228.812C60.3839 228.812 75.7214 244.44 75.7214 263.828V409.975C69.3558 412.869 62.6996 417.209 58.0683 422.419C47.3621 433.125 40.9933 447.884 40.9933 463.225C40.9933 478.566 46.7808 493.322 58.0683 504.031L161.093 607.056C165.725 611.687 172.959 611.687 177.59 607.056C182.221 602.425 182.221 595.191 177.59 591.141L73.9871 487.537C60.3839 473.934 60.3839 451.94 73.9871 438.34C87.5902 424.737 109.584 424.737 123.184 438.34L251.678 566.834C272.803 588.25 283.512 616.031 283.512 643.815H283.225V643.809Z" fill="black"/>
</svg>
