<svg width="43" height="42" viewBox="0 0 43 42" fill="none" xmlns="http://www.w3.org/2000/svg">
<path d="M37.25 17.5C37.25 29.75 21.5 40.25 21.5 40.25C21.5 40.25 5.75 29.75 5.75 17.5C5.75 13.3228 7.40937 9.31677 10.3631 6.36307C13.3168 3.40937 17.3228 1.75 21.5 1.75C25.6772 1.75 29.6832 3.40937 32.6369 6.36307C35.5906 9.31677 37.25 13.3228 37.25 17.5Z" stroke="#0094B7" stroke-width="2" stroke-linecap="round" stroke-linejoin="round"/>
<path d="M21.5 22.75C24.3995 22.75 26.75 20.3995 26.75 17.5C26.75 14.6005 24.3995 12.25 21.5 12.25C18.6005 12.25 16.25 14.6005 16.25 17.5C16.25 20.3995 18.6005 22.75 21.5 22.75Z" stroke="#0094B7" stroke-width="2" stroke-linecap="round" stroke-linejoin="round"/>
</svg>
