<svg width="26" height="26" viewBox="0 0 26 26" fill="none" xmlns="http://www.w3.org/2000/svg">
<g clip-path="url(#clip0_588_1234)">
<path d="M23.397 7.92695C23.4128 8.14902 23.4128 8.37114 23.4128 8.59321C23.4128 15.3667 18.2574 23.1712 8.83481 23.1712C5.93188 23.1712 3.23521 22.3305 0.966797 20.8711C1.37925 20.9187 1.77578 20.9346 2.2041 20.9346C4.59937 20.9346 6.80435 20.1256 8.56514 18.7455C6.3126 18.6979 4.4249 17.2227 3.77451 15.1922C4.0918 15.2397 4.40903 15.2715 4.74219 15.2715C5.2022 15.2715 5.66226 15.208 6.09053 15.097C3.74282 14.6211 1.98198 12.5589 1.98198 10.0685V10.005C2.66406 10.3857 3.45728 10.6237 4.29795 10.6554C2.91787 9.7353 2.01372 8.16489 2.01372 6.38823C2.01372 5.43647 2.26748 4.56401 2.71167 3.80259C5.23389 6.91172 9.02515 8.94214 13.2764 9.16426C13.1971 8.78354 13.1495 8.38701 13.1495 7.99043C13.1495 5.1668 15.4337 2.8667 18.2732 2.8667C19.7484 2.8667 21.0809 3.48535 22.0168 4.48472C23.1748 4.26265 24.2852 3.83433 25.2688 3.24741C24.888 4.43716 24.079 5.43652 23.0162 6.071C24.0473 5.96001 25.0467 5.67441 25.9667 5.27788C25.2688 6.29307 24.3963 7.19722 23.397 7.92695Z" fill="black"/>
</g>
<defs>
<clipPath id="clip0_588_1234">
<rect width="25" height="25" fill="white" transform="translate(0.966797 0.519043)"/>
</clipPath>
</defs>
</svg>
