<svg width="25" height="25" viewBox="0 0 25 25" fill="none" xmlns="http://www.w3.org/2000/svg">
<path d="M18.4375 14.9514C18.75 15.1139 18.95 15.2013 19.0125 15.3263C19.0875 15.4638 19.0625 16.0887 18.75 16.8011C18.5 17.501 17.2 18.1759 16.625 18.2009C16.05 18.2259 16.0375 18.6509 12.925 17.2886C9.81251 15.9262 7.9375 12.6017 7.7875 12.3892C7.6375 12.1768 6.58751 10.6645 6.63751 9.12717C6.70001 7.60238 7.50001 6.87748 7.82501 6.57752C8.12501 6.25256 8.4625 6.21507 8.675 6.25256H9.2625C9.45 6.25256 9.71251 6.17757 9.95 6.81499L10.8125 9.15217C10.8875 9.31464 10.9375 9.50212 10.825 9.70209L10.4875 10.2145L10 10.7394C9.85001 10.8894 9.67501 11.0519 9.85001 11.3644C10 11.6893 10.625 12.7267 11.5 13.5891C12.6375 14.6889 13.6375 15.0514 13.9375 15.2138C14.2375 15.3888 14.425 15.3638 14.6125 15.1638L15.625 13.989C15.8625 13.6765 16.0625 13.7515 16.35 13.8515L18.4375 14.9514V14.9514ZM12.5 0.00341797C14.1415 0.00341797 15.767 0.326696 17.2835 0.954794C18.8001 1.58289 20.1781 2.50351 21.3388 3.66408C22.4996 4.82466 23.4203 6.20246 24.0485 7.71882C24.6767 9.23518 25 10.8604 25 12.5017C25 15.8165 23.683 18.9955 21.3388 21.3393C18.9946 23.6832 15.8152 25 12.5 25C10.0375 25 7.75001 24.2876 5.81251 23.0628L8.03641e-06 25L1.93751 19.1883C0.669389 17.1888 -0.00268076 14.8694 8.03641e-06 12.5017C8.03641e-06 9.18696 1.31697 6.00797 3.66117 3.66408C6.00538 1.3202 9.1848 0.00341797 12.5 0.00341797V0.00341797ZM12.5 2.50308C9.84784 2.50308 7.3043 3.5565 5.42894 5.43161C3.55358 7.30672 2.50001 9.84991 2.50001 12.5017C2.50001 14.6514 3.17501 16.6386 4.32501 18.2634L3.12501 21.8754L6.73751 20.6756C8.42224 21.8674 10.4363 22.5051 12.5 22.5003C15.1522 22.5003 17.6957 21.4469 19.5711 19.5718C21.4464 17.6967 22.5 15.1535 22.5 12.5017C22.5 9.84991 21.4464 7.30672 19.5711 5.43161C17.6957 3.5565 15.1522 2.50308 12.5 2.50308V2.50308Z" fill="#090943"/>
</svg>
