<svg width="800" height="801" viewBox="0 0 800 801" fill="none" xmlns="http://www.w3.org/2000/svg">
<g clip-path="url(#clip0_586_1210)">
<path d="M266.666 200.5H166.666C148.233 200.5 133.333 185.567 133.333 167.167C133.333 148.767 148.233 133.833 166.666 133.833H266.666C285.1 133.833 300 148.767 300 167.167C300 185.567 285.1 200.5 266.666 200.5ZM433.333 333.833H166.666C148.233 333.833 133.333 318.9 133.333 300.5C133.333 282.1 148.233 267.167 166.666 267.167H433.333C451.766 267.167 466.666 282.1 466.666 300.5C466.666 318.9 451.766 333.833 433.333 333.833ZM433.333 467.167H166.666C148.233 467.167 133.333 452.233 133.333 433.833C133.333 415.433 148.233 400.5 166.666 400.5H433.333C451.766 400.5 466.666 415.433 466.666 433.833C466.666 452.233 451.766 467.167 433.333 467.167Z" fill="#0094B7"/>
<path d="M600 67.1667V333.833C600 352.167 585 367.167 566.667 367.167C548.333 367.167 533.333 352.167 533.333 333.833V83.8333C533.333 74.5 526 67.1667 516.667 67.1667H83.3333C74 67.1667 66.6667 74.5 66.6667 83.8333V717.167C66.6667 726.5 74 733.833 83.3333 733.833H516.667C526 733.833 533.333 726.5 533.333 717.167V700.5C533.333 682.167 548.333 667.167 566.667 667.167C585 667.167 600 682.167 600 700.5V733.833C600 770.5 570 800.5 533.333 800.5H66.6667C30 800.5 0 770.5 0 733.833V67.1667C0 30.5 30 0.5 66.6667 0.5H533.333C570 0.5 600 30.5 600 67.1667Z" fill="#0094B7"/>
<path d="M795.667 396.566C806 414.566 797.167 439 775.833 451.333L454.167 637C451.367 638.666 448.3 639.866 445.333 640.666L356.8 662.666C344.467 665.733 332.8 661.5 327.467 652.2C322.067 642.933 324.467 630.533 333.133 621.766L396.7 556.5C398.8 554.1 401.267 552.4 403.833 550.933C403.967 550.6 404.233 550.433 404.233 550.433L725.9 364.766C747.233 352.433 772.833 356.966 783.233 374.933L795.7 396.6L795.667 396.566Z" fill="#0094B7"/>
</g>
<defs>
<clipPath id="clip0_586_1210">
<rect width="800" height="800" fill="white" transform="translate(0 0.5)"/>
</clipPath>
</defs>
</svg>
