<svg width="25" height="25" viewBox="0 0 25 25" fill="none" xmlns="http://www.w3.org/2000/svg">
<path d="M7.25 0.00341797H17.75C21.75 0.00341797 25 3.25297 25 7.25243V17.751C25 19.6735 24.2362 21.5174 22.8765 22.8768C21.5169 24.2363 19.6728 25 17.75 25H7.25C3.25 25 0 21.7504 0 17.751V7.25243C0 5.32987 0.763837 3.48606 2.12348 2.1266C3.48311 0.767151 5.32718 0.00341797 7.25 0.00341797ZM7 2.50308C5.80653 2.50308 4.66193 2.97712 3.81802 3.82092C2.97411 4.66471 2.5 5.80915 2.5 7.00246V18.001C2.5 20.4881 4.5125 22.5003 7 22.5003H18C19.1935 22.5003 20.3381 22.0263 21.182 21.1825C22.0259 20.3387 22.5 19.1943 22.5 18.001V7.00246C22.5 4.5153 20.4875 2.50308 18 2.50308H7ZM19.0625 4.37782C19.4769 4.37782 19.8743 4.54242 20.1674 4.8354C20.4604 5.12839 20.625 5.52576 20.625 5.94011C20.625 6.35445 20.4604 6.75182 20.1674 7.04481C19.8743 7.3378 19.4769 7.50239 19.0625 7.50239C18.6481 7.50239 18.2507 7.3378 17.9576 7.04481C17.6646 6.75182 17.5 6.35445 17.5 5.94011C17.5 5.52576 17.6646 5.12839 17.9576 4.8354C18.2507 4.54242 18.6481 4.37782 19.0625 4.37782ZM12.5 6.25256C14.1576 6.25256 15.7473 6.91095 16.9194 8.0829C18.0915 9.25484 18.75 10.8443 18.75 12.5017C18.75 14.1591 18.0915 15.7486 16.9194 16.9205C15.7473 18.0925 14.1576 18.7509 12.5 18.7509C10.8424 18.7509 9.25269 18.0925 8.08058 16.9205C6.90848 15.7486 6.25 14.1591 6.25 12.5017C6.25 10.8443 6.90848 9.25484 8.08058 8.0829C9.25269 6.91095 10.8424 6.25256 12.5 6.25256ZM12.5 8.75222C11.5054 8.75222 10.5516 9.14725 9.84835 9.85042C9.14509 10.5536 8.75 11.5073 8.75 12.5017C8.75 13.4961 9.14509 14.4498 9.84835 15.153C10.5516 15.8562 11.5054 16.2512 12.5 16.2512C13.4946 16.2512 14.4484 15.8562 15.1517 15.153C15.8549 14.4498 16.25 13.4961 16.25 12.5017C16.25 11.5073 15.8549 10.5536 15.1517 9.85042C14.4484 9.14725 13.4946 8.75222 12.5 8.75222Z" fill="#090943"/>
</svg>
