<svg width="800" height="801" viewBox="0 0 800 801" fill="none" xmlns="http://www.w3.org/2000/svg">
<path fill-rule="evenodd" clip-rule="evenodd" d="M403.75 204.2C398.68 201.762 393.126 200.496 387.5 200.496C381.874 200.496 376.32 201.762 371.25 204.2L33.75 366.7C27.3828 369.76 22.0093 374.555 18.2484 380.535C14.4875 386.515 12.4922 393.436 12.4922 400.5C12.4922 407.564 14.4875 414.485 18.2484 420.464C22.0093 426.444 27.3828 431.24 33.75 434.3L100 466.2V641.75C100.008 646.951 101.098 652.093 103.2 656.85L137.5 641.75C103.2 656.85 103.2 656.95 103.2 656.95L103.3 657.15L103.45 657.45L103.75 658.1C104.854 660.492 106.107 662.813 107.5 665.05C109.85 669.05 113.3 674.25 118 680.2C127.5 692.1 142.15 706.85 163.85 721.2C207.4 749.95 277.1 775.5 386.35 775.5C495.2 775.5 560.7 750.1 599.9 719.4C619.4 704.15 631.5 688.25 638.9 675.2C642.884 668.124 646.07 660.628 648.4 652.85L648.9 650.8L649.1 649.95L649.15 649.6L649.2 649.45V649.4C649.2 649.4 649.2 649.3 612.5 641.75L649.25 649.3C649.75 646.8 650 644.3 650 641.75V478.25L741.25 434.25C747.59 431.179 752.937 426.385 756.678 420.416C760.42 414.447 762.404 407.544 762.404 400.5C762.404 393.455 760.42 386.553 756.678 380.584C752.937 374.615 747.59 369.82 741.25 366.75L403.75 204.2ZM575 514.35L403.75 596.8C398.68 599.238 393.126 600.504 387.5 600.504C381.874 600.504 376.32 599.238 371.25 596.8L175 502.3V631.25L176.65 633.4C181.55 639.55 190.45 648.85 205.15 658.6C234.4 677.9 289.1 700.5 386.3 700.5C483.8 700.5 531.4 677.8 553.7 660.35C564.95 651.55 570.7 643.35 573.5 638.35C574.035 637.418 574.535 636.468 575 635.5V514.35ZM387.5 521.35L136.45 400.5L387.5 279.6L638.55 400.5L387.5 521.4V521.35Z" fill="black"/>
</svg>
