<svg width="42" height="42" viewBox="0 0 42 42" fill="none" xmlns="http://www.w3.org/2000/svg">
<path d="M26.3375 8.75C28.0468 9.08349 29.6177 9.91945 30.8491 11.1509C32.0806 12.3823 32.9165 13.9532 33.25 15.6625M26.3375 1.75C29.8887 2.14451 33.2003 3.73481 35.7284 6.25976C38.2566 8.78472 39.851 12.0943 40.25 15.645M38.5 29.61V34.86C38.502 35.3474 38.4021 35.8298 38.2069 36.2764C38.0116 36.7229 37.7253 37.1238 37.3661 37.4533C37.007 37.7827 36.583 38.0336 36.1213 38.1897C35.6596 38.3459 35.1704 38.4039 34.685 38.36C29.3 37.7749 24.1273 35.9348 19.5825 32.9875C15.3542 30.3007 11.7693 26.7158 9.0825 22.4875C6.12497 17.9221 4.28443 12.7242 3.71001 7.315C3.66627 6.83107 3.72379 6.34333 3.87888 5.88284C4.03398 5.42236 4.28325 4.99921 4.61085 4.64034C4.93844 4.28147 5.33716 3.99474 5.78164 3.79841C6.22611 3.60209 6.7066 3.50046 7.19251 3.5H12.4425C13.2918 3.49164 14.1151 3.79239 14.7591 4.34618C15.403 4.89998 15.8236 5.66903 15.9425 6.51C16.1641 8.19012 16.575 9.83977 17.1675 11.4275C17.403 12.0539 17.4539 12.7346 17.3143 13.389C17.1748 14.0435 16.8505 14.6442 16.38 15.12L14.1575 17.3425C16.6487 21.7237 20.2763 25.3513 24.6575 27.8425L26.88 25.62C27.3558 25.1495 27.9565 24.8252 28.611 24.6857C29.2654 24.5461 29.9461 24.597 30.5725 24.8325C32.1602 25.425 33.8099 25.8359 35.49 26.0575C36.3401 26.1774 37.1165 26.6056 37.6714 27.2606C38.2264 27.9156 38.5213 28.7518 38.5 29.61Z" stroke="#0094B7" stroke-width="2" stroke-linecap="round" stroke-linejoin="round"/>
</svg>
