<svg width="800" height="801" viewBox="0 0 800 801" fill="none" xmlns="http://www.w3.org/2000/svg">
<g clip-path="url(#clip0_586_1214)">
<path d="M223.845 248.232C223.845 285.044 194.003 314.885 157.192 314.885C120.38 314.885 90.5391 285.044 90.5391 248.232C90.5391 211.42 120.38 181.579 157.192 181.579C194.003 181.579 223.845 211.42 223.845 248.232ZM576.155 248.232C576.155 285.044 605.997 314.885 642.809 314.885C679.62 314.885 709.462 285.044 709.462 248.232C709.462 211.42 679.62 181.579 642.809 181.579C605.996 181.579 576.155 211.42 576.155 248.232ZM204.802 552.932V395.297C204.802 366.664 181.586 343.45 152.955 343.45H151.908C123.275 343.45 100.061 366.664 100.061 395.297V562.454C100.061 594.009 125.637 619.586 157.192 619.586H242.889C253.411 619.586 261.933 628.108 261.933 638.63V771.936C261.933 787.715 274.72 800.5 290.498 800.5H300.02C315.799 800.5 328.586 787.713 328.586 771.936V610.062C328.586 578.506 303.01 552.93 271.455 552.93L204.802 552.932ZM648.093 343.45H647.045C618.414 343.45 595.2 366.664 595.2 395.297V552.932H528.545C496.99 552.932 471.414 578.508 471.414 610.063V767.507C471.414 785.732 486.183 800.5 504.407 800.5H505.074C523.299 800.5 538.067 785.732 538.067 767.507V638.629C538.067 628.107 546.589 619.585 557.112 619.585H642.809C674.364 619.585 699.941 594.007 699.941 562.452V395.297C699.939 366.664 676.724 343.45 648.093 343.45ZM557.111 486.279V457.713C557.111 452.458 552.844 448.191 547.589 448.191H252.411C247.154 448.191 242.889 452.458 242.889 457.713V486.279C242.889 491.534 247.154 495.8 252.411 495.8H547.589C552.844 495.8 557.111 491.534 557.111 486.279ZM374.301 0.500488C304.886 0.500488 248.622 45.0349 248.622 99.9663C248.622 132.694 268.685 161.639 299.506 179.769C296.487 196.3 286.89 215.77 273.474 229.188C306.249 226.74 335.09 217.343 353.981 198.014C360.617 198.871 367.378 199.432 374.311 199.432C443.725 199.432 499.99 154.898 499.99 99.9663C499.99 45.0349 443.705 0.500488 374.301 0.500488ZM315.379 119.601C304.533 119.601 295.745 110.813 295.745 99.9677C295.745 89.1225 304.533 80.333 315.379 80.333C326.224 80.333 335.012 89.1225 335.012 99.9677C335.012 110.813 326.224 119.601 315.379 119.601ZM374.301 119.601C363.454 119.601 354.666 110.813 354.666 99.9677C354.666 89.1225 363.454 80.333 374.301 80.333C385.146 80.333 393.934 89.1225 393.934 99.9677C393.934 110.813 385.146 119.601 374.301 119.601ZM433.212 119.601C422.367 119.601 413.579 110.813 413.579 99.9677C413.579 89.1225 422.367 80.333 433.212 80.333C444.057 80.333 452.845 89.1225 452.845 99.9677C452.845 110.813 444.058 119.601 433.212 119.601Z" fill="black"/>
</g>
<defs>
<clipPath id="clip0_586_1214">
<rect width="800" height="800" fill="white" transform="translate(0 0.5)"/>
</clipPath>
</defs>
</svg>
